# xmcd
#
# Track frame offsets:
#	150
#	20917
#	42732
#	58175
#	79842
#	103517
#	122180
#	147605
#	167120
#	187987
#
# Disc length: 2749 seconds
#
# Revision: 3
# Processed by: cddbd v1.5.2PL0 Copyright (c) Steve Scherf et al.
# Submitted via: audiograbber 1.83.01
#
DISCID=960abb0a
DTITLE=Hudson, Lavine - Intervention
DYEAR=1988
DGENRE=Soul
TTITLE0=Intervention
TTITLE1=Flesh of my flesh
TTITLE2=Celebrate salvation
TTITLE3=Create in me
TTITLE4=Can't you see
TTITLE5=Material world
TTITLE6=Learning how to love
TTITLE7=Prodigal boy
TTITLE8=Home
TTITLE9=Does Jesus care
EXTD=
EXTT0=
EXTT1=
EXTT2=
EXTT3=
EXTT4=
EXTT5=
EXTT6=
EXTT7=
EXTT8=
EXTT9=
PLAYORDER=
